<svg xmlns="http://www.w3.org/2000/svg" xmlns:xlink="http://www.w3.org/1999/xlink" width="1346" height="234" viewBox="0 0 1346 234"><defs><path id="ii2ca" d="M253.17 514.38h-87.1v94.27h-45.5V381.78h148.5v35.06h-103v62.48h87.1zm153.95 45.35h-73.55l-15.27 48.92h-47.53l76.51-226.87h46.6l76.2 226.87h-47.54zm-62.33-35.69h51.27l-25.1-79.93h-.93zm192.6-6.07v90.68h-45.5V381.78h78.53c25.87 0 46.1 5.9 60.7 17.68C645.7 411.26 653 427.7 653 448.78c0 11.64-3.1 21.69-9.28 30.15-6.18 8.47-15.19 15.3-27.03 20.5 13.4 3.94 23.03 10.54 28.9 19.78 5.87 9.25 8.8 20.68 8.8 34.28v16.68c0 6.33.86 12.96 2.58 19.86 1.71 6.91 4.65 12.03 8.8 15.35v3.27h-46.9c-4.16-3.32-6.83-8.82-8.02-16.51a145 145 0 0 1-1.8-22.29v-16.04c0-11.33-3.09-20.13-9.27-26.42-6.18-6.28-14.93-9.42-26.25-9.42zm0-35.06h32.25c12.78 0 22.28-2.7 28.52-8.1 6.23-5.4 9.35-13.4 9.35-24 0-10.39-3.15-18.65-9.43-24.78-6.29-6.13-15.5-9.2-27.66-9.2h-33.03zm275.18 66.07h.93l58.28-167.2h59.37v226.87h-45.5V453.77l-.94-.16-56.1 155.04h-30.85l-56.1-155.35-.93.16v155.2h-45.5V381.77h59.68zm208.95 59.67h-45.5V381.78h45.5zm228.44 0h-45.5l-91.47-153.01-.93.15v152.86h-45.5V381.78h45.5l91.46 152.86.94-.16v-152.7h45.5zm215.65-31c-7.06 9.24-17.6 17.27-31.63 24.07-14.02 6.8-32.1 10.2-54.22 10.2-27.43 0-49.87-8.61-67.32-25.86-17.45-17.24-26.18-39.63-26.18-67.16v-47.37c0-27.42 8.47-49.78 25.4-67.08 16.93-17.3 38.7-25.94 65.3-25.94 27.73 0 48.97 6.57 63.72 19.7 14.75 13.15 21.87 30.68 21.35 52.6l-.31.93h-42.85c0-12.05-3.48-21.42-10.44-28.12-6.96-6.7-17.1-10.05-30.39-10.05-13.92 0-25.14 5.37-33.65 16.12-8.52 10.76-12.78 24.6-12.78 41.53v47.68c0 17.14 4.36 31.11 13.09 41.92 8.72 10.8 20.41 16.2 35.06 16.2 10.8 0 19.34-1.09 25.63-3.27 6.28-2.18 11.14-4.93 14.57-8.26v-43.94h-43.63v-31.48h89.28z"/><linearGradient id="ii2cb" x1="855.61" x2="730.56" y1="611.93" y2="378.51" gradientUnits="userSpaceOnUse"><stop offset="0" stop-color="#7f5ffa"/><stop offset="1" stop-color="#381d9c"/></linearGradient></defs><g><g opacity=".6" transform="translate(-120 -378)"><use fill="#3c1fae" xlink:href="#ii2ca"/><use fill="url(#ii2cb)" xlink:href="#ii2ca"/></g></g></svg>