<svg xmlns="http://www.w3.org/2000/svg" xmlns:xlink="http://www.w3.org/1999/xlink" width="1334" height="175" viewBox="0 0 1334 175"><defs><path id="obkia" d="M153.28 2377.89h-27.24v-139.54h27.24zm82.51 0h-33.32l-49-73.1 45.08-66.44h32.54l-46.84 65.46zm128.17 0h-28.42l-8.23-24.7h-49.58l-8.43 24.7h-28.42l50.76-139.54H313zm-43.9-47.63L303 2279.51l-17.64 50.75zm88.77 47.63H381.6v-139.54h27.24zm82.51 0h-33.32l-48.99-73.1 45.07-66.44h32.54l-46.84 65.46zm187.35 0h-27.24v-81.33l-26.65 52.91h-18.42l-26.85-52.91v81.33h-27.24v-139.54h26.85l36.45 75.45 36.25-75.45h26.85zm140.32 0H790.6l-8.24-24.7h-49.58l-8.43 24.7h-28.41l50.76-139.54h21.36zm-43.9-47.63l-17.05-50.75-17.63 50.75zm146-127.38c-.39 9.8-3.6 16.92-9.6 21.36-6.01 4.44-13.4 6.66-22.14 6.66-8.76 0-16.14-2.22-22.15-6.66-6.01-4.44-9.21-11.56-9.6-21.36h19.2c.52 8.1 4.7 12.15 12.55 12.15 7.84 0 12.01-4.05 12.54-12.15zm20.97 175h-27.24v-89.56l-54.28 89.57h-24.3v-139.54h27.24v89.37l54.28-89.37h24.3zm134.25 0h-27.24v-58.4h-47.23v58.4h-27.24v-139.53h27.24v57.03h47.23v-57.03h27.24zm138.36 0h-27.24v-89.56l-54.29 89.57h-24.3v-139.54h27.24v89.37l54.29-89.37h24.3zm122.29-115.23h-36.45v115.24h-27.24v-115.24h-36.46v-24.3h100.15zm77.02 28.22c13.58 0 24.53 4.05 32.82 12.15 8.3 8.1 12.45 18.56 12.45 31.36s-4.18 23.26-12.54 31.36c-8.37 8.1-19.28 12.15-32.73 12.15h-54.88v-139.54h27.24v52.52zm-2.16 62.72c6.14 0 11.04-1.77 14.7-5.3 3.66-3.52 5.49-8.16 5.49-13.91s-1.83-10.39-5.49-13.91c-3.66-3.53-8.56-5.3-14.7-5.3h-25.48v38.42z"/><linearGradient id="obkib" x1="792.27" x2="793.04" y1="2377.89" y2="2202.88" gradientUnits="userSpaceOnUse"><stop offset="0" stop-color="#4414ff"/><stop offset="1" stop-color="#1d0968"/></linearGradient></defs><g><g opacity=".27" transform="translate(-126 -2203)"><use fill="#959595" xlink:href="#obkia"/><use fill="url(#obkib)" xlink:href="#obkia"/></g></g></svg>